<?xml version="1.0" standalone="no"?>
<!DOCTYPE svg PUBLIC "-//W3C//DTD SVG 20010904//EN"
 "http://www.w3.org/TR/2001/REC-SVG-20010904/DTD/svg10.dtd">
<svg version="1.0" xmlns="http://www.w3.org/2000/svg"
 width="1513.000000pt" height="1330.000000pt" viewBox="0 0 1513.000000 1330.000000"
 preserveAspectRatio="xMidYMid meet">
<metadata>
Created by potrace 1.16, written by Peter Selinger 2001-2019
</metadata>
<g transform="translate(0.000000,1330.000000) scale(0.100000,-0.100000)"
fill="#000000" stroke="none">
<path d="M7108 10671 l-613 -616 620 615 620 615 -620 -622 -620 -623 -467
467 c-258 258 -468 470 -468 473 0 3 210 -204 468 -460 l467 -465 -463 466
c-324 326 -469 465 -483 464 -30 -2 -1888 -1863 -1882 -1885 2 -9 65 -77 139
-151 l134 -134 80 80 80 80 0 -803 0 -802 790 0 790 0 0 -469 c0 -259 4 -472
8 -475 5 -3 474 461 1043 1030 l1034 1034 170 2 170 2 -170 3 -169 4 -1041
-1038 -1040 -1038 1040 1043 1040 1044 258 -4 259 -5 219 -219 219 -219 87 88
88 87 -820 823 -820 822 828 -825 c455 -454 827 -823 827 -820 0 11 -1650
1654 -1663 1656 -8 1 -57 -41 -108 -93 -52 -53 -89 -93 -83 -89 12 6 38 -17
29 -25 -2 -3 88 -97 200 -209 l205 -205 2 -165 2 -165 3 165 4 164 -208 211
-208 210 211 -210 212 -210 6 -255 6 -255 -725 -725 -725 -725 0 875 0 875
830 830 830 830 830 -830 830 -830 0 -1542 0 -1543 -147 -2 -148 -2 155 -6
155 -6 -152 -2 c-100 -1 -153 -6 -153 -13 0 -5 -6 -7 -12 -3 -7 4 77 -84 187
-195 l200 -201 155 2 155 2 -155 3 -156 3 -189 193 -190 192 190 -187 190
-188 158 0 157 0 0 900 0 900 790 0 790 0 0 802 0 802 75 -74 c40 -40 72 -77
69 -81 -2 -4 1 -11 7 -15 16 -10 289 265 281 284 -4 11 -2 13 8 7 9 -5 11 -4
6 4 -4 6 -11 9 -15 7 -9 -6 -1884 1868 -1876 1875 3 3 -1 6 -9 6 -8 0 -223
-210 -478 -466 l-463 -466 470 465 470 465 -470 -473 -470 -472 -617 617
c-340 340 -618 620 -618 623 0 3 278 -272 618 -610 l617 -615 -613 616 c-338
339 -620 616 -627 616 -7 0 -289 -277 -627 -616z m-2493 -631 c-512 -512 -934
-930 -940 -930 -5 0 411 421 925 935 514 514 936 932 939 929 3 -3 -413 -423
-924 -934z m6365 -1340 l0 -665 -863 863 -862 862 330 333 330 332 533 -530
532 -530 0 -665z m-5095 1390 l330 -330 -863 -863 -862 -862 0 665 0 665 527
527 c291 291 530 528 533 528 3 0 154 -149 335 -330z m-205 -1875 l0 -455
-457 0 -458 0 455 455 c250 250 456 455 457 455 2 0 3 -205 3 -455z m5019
-452 c2 -2 -201 -3 -452 -3 l-457 0 0 452 0 453 452 -450 c249 -248 454 -451
457 -452z"/>
<path d="M9590 10085 l-325 -325 853 -853 852 -852 0 655 0 655 -523 523
c-287 287 -524 522 -527 522 -3 0 -151 -146 -330 -325z m853 -203 l517 -517 0
-645 0 -645 -842 842 -843 843 320 320 c176 176 322 320 325 320 3 0 238 -233
523 -518z"/>
<path d="M5022 9887 l-522 -522 0 -655 0 -655 852 852 853 853 -325 325 c-179
179 -327 325 -330 325 -3 0 -240 -235 -528 -523z m853 193 l320 -320 -843
-843 -842 -842 0 645 0 645 517 517 c285 285 520 518 523 518 3 0 149 -144
325 -320z"/>
<path d="M5230 8208 l-435 -438 437 0 438 0 0 440 c0 242 -1 439 -2 438 -2 -1
-199 -199 -438 -440z m430 -8 l0 -420 -422 0 -423 0 420 420 c231 231 421 420
422 420 2 0 3 -189 3 -420z"/>
<path d="M9800 8205 l0 -435 437 0 438 0 -435 435 c-239 239 -436 435 -437
435 -2 0 -3 -196 -3 -435z m435 -5 l420 -420 -423 0 -422 0 0 420 c0 231 1
420 3 420 1 0 191 -189 422 -420z"/>
<path d="M10860 10045 c509 -509 927 -925 930 -925 3 0 -411 416 -920 925
-509 509 -927 925 -930 925 -3 0 411 -416 920 -925z"/>
<path d="M6907 9882 l-827 -827 0 -860 0 -860 715 715 715 715 -2 55 -2 55 -3
-55 -4 -56 -704 -704 -705 -705 0 850 0 850 822 822 823 823 825 -822 825
-823 -825 828 c-454 455 -825 827 -825 827 0 0 -372 -372 -828 -828z"/>
<path d="M7360 10005 l-65 -65 838 -838 837 -837 67 68 68 67 -730 728 -730
727 725 -727 725 -728 -63 -62 -62 -63 -832 832 -833 833 60 60 c33 33 62 60
66 60 4 0 -21 -27 -54 -60 l-62 -59 827 -828 828 -828 57 58 58 57 -824 824
c-453 453 -823 827 -821 832 5 25 -22 7 -80 -51z"/>
<path d="M3650 9091 c0 -4 65 -71 145 -151 l145 -145 70 70 70 69 3 -784 2
-785 3 795 2 794 -75 -74 -76 -75 -144 146 c-80 80 -145 143 -145 140z"/>
<path d="M11382 8158 l3 -793 2 785 3 784 58 -54 57 -55 -60 63 c-33 34 -61
62 -62 62 -2 0 -2 -357 -1 -792z"/>
<path d="M7715 8109 c-99 -100 -175 -179 -170 -177 6 3 48 -40 95 -96 l84
-101 -98 84 -99 84 -158 -160 c-88 -87 -159 -157 -159 -154 0 15 319 323 328
317 6 -3 13 -3 16 2 2 4 -3 8 -13 9 -23 2 -346 -321 -337 -336 4 -6 11 -9 15
-6 5 2 29 -27 55 -65 l47 -71 -76 53 -75 52 -275 -274 c-151 -151 -275 -279
-275 -285 0 -5 27 -45 61 -89 33 -43 58 -80 56 -83 -3 -2 -14 8 -26 23 -11 15
-21 24 -21 20 0 -4 -27 14 -61 40 l-61 47 -98 -98 c-54 -54 -101 -106 -103
-116 -3 -13 26 -48 103 -123 97 -95 149 -130 167 -112 4 3 -2 6 -13 6 -10 0
-32 9 -49 20 -16 11 -25 20 -20 20 6 -1 19 -7 29 -15 12 -9 41 -15 70 -15 l51
0 705 702 705 703 -705 -708 c-388 -389 -702 -706 -698 -705 4 2 243 238 530
525 702 702 896 897 879 888 -11 -7 -12 -4 -5 11 5 10 8 43 8 72 0 34 3 48 8
40 7 -10 9 -9 5 2 -2 8 -10 15 -17 15 -7 0 -15 6 -18 14 -3 9 0 11 9 6 8 -4
-35 42 -96 104 -60 61 -112 111 -115 111 -3 0 -86 -82 -185 -181z"/>
<path d="M7452 7187 c-424 -424 -772 -774 -772 -777 0 -3 348 343 774 769 662
662 777 773 790 762 8 -7 26 -36 41 -64 14 -28 25 -44 25 -35 0 18 -60 110
-75 115 -6 2 -358 -345 -783 -770z"/>
<path d="M7461 7176 c-596 -596 -762 -768 -754 -778 6 -7 11 -17 10 -22 -1 -5
9 -15 23 -24 l25 -14 -25 21 -25 22 44 -21 c35 -18 57 -21 121 -18 44 2 76 7
72 12 -3 5 3 6 13 2 14 -5 50 25 164 141 l146 147 -146 -142 c-80 -78 -148
-142 -151 -142 -3 0 59 64 139 143 169 167 136 155 433 156 l195 1 350 -350
350 -350 -1173 0 -1172 0 0 327 0 328 -200 -200 -200 -200 0 -322 0 -323 1794
0 c1493 0 1795 2 1799 13 3 9 -248 267 -648 667 -360 360 -651 658 -648 663 4
6 1 7 -7 2 -8 -5 194 -214 646 -666 363 -363 654 -659 649 -659 -6 0 -302 292
-659 649 l-648 648 1 239 2 239 137 135 137 135 -133 -135 -132 -136 3 -194 2
-195 3 195 2 195 138 139 c75 76 131 135 123 131 -7 -4 -12 -4 -9 1 48 99 50
109 45 161 -5 50 -48 143 -65 143 -4 0 -351 -344 -771 -764z"/>
<path d="M4877 7353 l783 -3 3 -458 2 -457 3 463 2 462 -787 -2 -788 -3 782
-2z"/>
<path d="M9802 6463 l3 -898 2 892 3 893 778 3 777 2 -782 3 -783 2 2 -897z"/>
<path d="M7545 6643 l200 -3 163 -163 c90 -89 236 -237 324 -329 l160 -168
-1136 0 -1136 0 -3 313 -2 312 -3 -317 -2 -318 1154 0 1153 0 -334 340 -335
340 -202 -2 -201 -3 200 -2z"/>
<path d="M6603 5553 c493 -2 1301 -2 1795 0 493 1 89 2 -898 2 -987 0 -1391
-1 -897 -2z"/>
<path d="M4400 4220 l0 -770 200 0 200 0 0 770 0 770 -200 0 -200 0 0 -770z"/>
<path d="M4385 4220 c0 -421 1 -593 2 -383 2 211 2 555 0 765 -1 211 -2 39 -2
-382z"/>
<path d="M3310 4932 c-36 -8 -78 -15 -95 -15 -16 0 -24 -2 -16 -5 8 -2 -17
-19 -55 -37 -38 -17 -90 -48 -117 -68 -50 -39 -62 -45 -52 -24 13 25 -131
-131 -148 -162 -28 -48 -14 -37 26 22 20 28 55 70 79 92 l43 40 -36 -40 c-96
-106 -151 -199 -191 -325 -20 -65 -23 -96 -23 -225 0 -130 3 -160 23 -225 80
-254 259 -433 512 -512 65 -20 95 -23 230 -23 135 0 165 3 230 23 117 37 207
89 295 172 74 69 78 68 15 -4 -14 -16 -20 -26 -13 -23 6 4 31 30 55 59 23 29
37 49 31 44 -19 -11 -16 9 4 25 14 12 16 12 8 0 -5 -10 -4 -12 4 -7 6 4 9 11
6 16 -3 5 10 37 29 72 34 62 67 157 80 231 l7 37 -212 -2 -211 -3 -21 -55
c-28 -76 -113 -160 -186 -185 -66 -22 -170 -22 -229 -1 -90 33 -203 142 -188
182 3 8 2 13 -3 9 -19 -11 -36 72 -36 175 0 97 2 110 32 172 38 81 97 142 171
176 75 34 193 35 269 2 29 -12 58 -29 65 -38 11 -13 11 -14 -2 -7 -8 4 1 -10
22 -31 20 -21 45 -55 57 -74 12 -19 21 -30 21 -25 0 14 -27 53 -63 93 -17 17
-26 32 -20 32 15 0 79 -88 98 -134 l15 -36 205 0 205 0 0 25 c0 41 -45 170
-85 242 -24 42 -71 101 -124 154 -71 71 -102 94 -181 133 -52 26 -84 44 -70
40 14 -3 46 -17 73 -30 26 -14 47 -22 47 -19 0 12 -125 65 -141 60 -9 -3 -45
1 -80 10 -83 19 -273 18 -359 -3z"/>
<path d="M9720 4910 c0 -6 -21 -146 -46 -313 -25 -166 -59 -390 -75 -497 -70
-466 -89 -597 -94 -622 l-4 -28 209 0 c209 0 210 0 214 23 3 12 12 76 20 142
8 66 22 170 30 230 8 61 24 177 35 259 11 82 22 150 24 152 8 8 358 -776 351
-787 -4 -8 -3 -9 4 -5 7 4 12 2 12 -4 0 -7 23 -10 67 -8 l67 3 135 292 c75
164 139 289 144 286 6 -4 7 -1 3 6 -7 11 83 225 91 217 4 -3 20 -119 72 -521
18 -132 34 -250 37 -262 4 -23 5 -23 209 -23 l205 0 0 23 c0 13 -47 339 -105
726 -58 386 -105 706 -105 711 0 6 -80 10 -207 10 l-208 -1 -53 -127 c-113
-268 -277 -642 -282 -642 -5 0 -295 664 -322 738 l-12 32 -208 0 c-132 0 -208
-4 -208 -10z"/>
<path d="M5445 4622 c25 -3 17 -7 -41 -22 -40 -10 -96 -31 -125 -47 -72 -37
-73 -38 -64 -22 5 8 4 11 -1 6 -5 -5 -9 -14 -9 -19 0 -6 -6 -13 -14 -16 -10
-3 -11 0 -5 9 13 22 -70 -52 -102 -91 -16 -19 -23 -31 -16 -26 18 11 15 -9 -5
-25 -14 -12 -16 -12 -8 0 5 10 4 12 -4 7 -6 -4 -9 -11 -6 -16 3 -5 -7 -35 -23
-67 -41 -81 -62 -175 -62 -274 0 -99 18 -179 62 -269 18 -36 34 -69 36 -74 3
-5 -2 -5 -9 -1 -8 5 -11 4 -6 -1 5 -5 14 -9 19 -9 6 0 13 -6 16 -14 3 -10 0
-11 -9 -5 -40 24 89 -104 131 -131 17 -10 2 4 -47 47 -16 13 -39 37 -53 53
-14 16 5 2 43 -33 78 -71 199 -134 295 -153 97 -18 271 -7 354 24 150 55 266
155 332 288 58 115 68 108 -163 111 l-199 3 -36 -38 c-20 -21 -28 -33 -17 -28
10 6 29 23 41 38 15 20 18 22 10 6 -36 -75 -170 -113 -271 -78 -57 20 -86 49
-115 110 l-24 50 415 3 c322 2 415 5 415 15 0 9 2 9 8 0 12 -19 1 168 -14 236
-48 213 -233 392 -449 435 -38 8 -124 16 -190 18 -66 2 -106 2 -90 0z m244
-345 c29 -13 53 -35 72 -65 16 -25 29 -50 29 -54 0 -4 -97 -8 -214 -8 l-215 0
10 28 c11 31 48 74 83 97 56 37 159 38 235 2z"/>
<path d="M12005 4622 c24 -3 17 -7 -43 -23 -98 -25 -183 -72 -261 -144 -36
-33 -56 -48 -44 -33 11 15 40 44 64 64 49 40 74 66 44 44 -60 -43 -181 -163
-137 -136 18 11 15 1 -14 -41 -34 -51 -42 -56 -16 -10 24 41 21 51 -4 12 -9
-13 -17 -37 -19 -52 -2 -16 -14 -55 -26 -88 -20 -52 -23 -78 -23 -195 0 -117
3 -143 23 -195 12 -33 24 -72 26 -88 2 -15 10 -39 19 -52 25 -39 28 -29 4 13
-26 45 -18 40 16 -11 29 -42 32 -52 14 -41 -44 27 77 -93 137 -136 30 -22 5 4
-44 44 -24 20 -53 49 -64 64 -12 15 9 -1 46 -35 74 -69 196 -134 285 -152 65
-13 212 -14 278 -2 73 14 158 48 215 87 56 37 64 40 53 22 -4 -7 19 12 50 42
54 52 67 68 46 55 -17 -10 -11 5 14 38 30 39 76 136 76 160 0 16 -15 18 -205
17 -191 -1 -206 -3 -215 -21 -6 -10 -27 -28 -48 -38 -20 -11 -33 -20 -29 -21
17 0 67 31 81 52 9 12 16 18 16 12 0 -6 -10 -20 -22 -31 -62 -57 -162 -77
-245 -49 -58 19 -94 53 -122 116 l-20 45 414 3 414 2 7 37 c9 48 -2 187 -20
244 -17 55 -71 165 -86 174 -5 3 -10 11 -10 16 0 6 6 7 13 3 43 -27 -78 93
-138 136 -30 22 -5 -4 44 -44 24 -20 53 -49 64 -64 12 -15 -9 1 -45 35 -124
114 -249 158 -473 165 -66 2 -106 2 -90 0z m244 -345 c29 -13 53 -35 72 -65
16 -25 29 -50 29 -54 0 -4 -97 -8 -214 -8 l-215 0 10 29 c6 17 18 36 27 43 13
11 15 11 7 -2 -4 -8 5 -3 21 11 16 15 38 31 49 37 11 6 15 12 8 12 -6 0 -25
-12 -42 -26 -17 -14 -31 -21 -31 -16 0 17 65 52 112 61 56 11 113 4 167 -22z"/>
<path d="M6718 4608 c15 -6 15 -7 -1 -7 -10 -1 -52 -17 -94 -36 -41 -19 -79
-32 -83 -30 -5 3 -12 0 -16 -6 -5 -8 -3 -9 7 -4 12 8 12 6 0 -8 -16 -20 -36
-23 -25 -4 5 6 -8 -1 -27 -18 -39 -34 -101 -103 -81 -91 6 4 12 3 12 -3 0 -5
-5 -13 -10 -16 -20 -12 -80 -145 -95 -207 -20 -84 -19 -235 1 -317 9 -36 33
-97 53 -136 19 -38 36 -76 36 -82 0 -7 9 -20 20 -30 19 -18 19 -18 0 7 -11 14
12 -5 52 -42 127 -118 258 -164 440 -156 109 5 186 28 262 77 l46 30 13 -34
14 -35 154 0 154 0 0 565 0 565 -149 0 c-146 0 -149 0 -154 -22 -4 -13 -13
-32 -21 -43 -13 -18 -16 -19 -33 -4 -10 9 -40 29 -68 43 -27 15 -39 24 -25 21
21 -5 22 -4 7 5 -9 6 -21 9 -26 6 -4 -3 -41 1 -80 10 -71 14 -319 17 -283 2z
m316 -363 c19 -8 38 -20 42 -26 5 -8 3 -9 -7 -4 -8 4 1 -8 20 -28 18 -20 42
-60 52 -89 10 -29 18 -45 19 -35 0 29 -29 90 -58 121 -15 16 -20 27 -12 24 8
-3 28 -26 45 -53 24 -39 30 -61 33 -121 7 -127 -52 -216 -164 -250 -26 -8 -60
-14 -75 -14 -38 0 -120 28 -139 47 -13 14 -13 15 0 8 8 -4 1 7 -16 26 -17 19
-36 43 -42 54 -6 11 -12 15 -12 8 0 -7 14 -28 31 -48 17 -19 27 -35 22 -35
-14 0 -53 57 -69 102 -27 79 -13 180 36 246 24 32 86 71 134 83 40 10 115 2
160 -16z"/>
<path d="M8385 4614 c-16 -3 -51 -12 -77 -20 -26 -9 -53 -12 -59 -8 -8 5 -9 3
-4 -6 6 -10 4 -12 -9 -7 -10 4 -15 3 -11 -3 3 -5 -5 -14 -17 -21 -13 -7 -39
-25 -58 -41 l-35 -28 -18 36 c-10 20 -16 42 -13 50 3 7 2 13 -2 12 -4 -1 -14
2 -23 6 -8 4 -73 5 -145 4 l-129 -3 -3 -567 -2 -568 199 0 200 0 3 343 c3 324
4 344 24 388 28 60 77 91 148 93 63 1 96 -14 122 -57 18 -30 19 -58 22 -399
l3 -368 199 0 200 0 0 388 c0 361 -1 392 -20 457 -34 113 -33 112 -20 95 10
-13 11 -13 7 0 -2 8 -9 14 -15 13 -6 -2 -17 7 -23 20 -6 12 -34 46 -63 76 -45
48 -47 51 -13 26 20 -15 37 -30 37 -34 1 -3 15 -22 32 -41 17 -20 26 -26 19
-13 -17 33 -111 124 -121 118 -5 -3 -31 6 -57 20 -26 14 -37 23 -23 19 14 -4
22 -3 17 1 -4 5 -24 9 -45 10 -20 2 -73 5 -117 8 -44 3 -93 3 -110 1z"/>
<path d="M10303 3000 c-18 -11 -33 -22 -33 -25 0 -4 5 -3 10 0 15 9 12 -2 -6
-30 -16 -24 -15 -49 1 -89 7 -15 5 -17 -6 -11 -8 5 -5 -1 5 -13 20 -23 32 -30
21 -12 -3 6 -2 10 4 10 5 0 13 -4 16 -10 3 -5 22 -10 41 -10 50 0 94 45 94 95
0 27 -8 44 -30 67 -31 31 -59 34 -115 14 -20 -7 -20 -7 0 5 10 7 33 16 50 20
27 6 28 7 5 8 -14 0 -40 -8 -57 -19z"/>
<path d="M3458 2983 l-178 -3 0 -395 0 -395 85 0 85 0 0 125 0 125 83 0 c54 1
101 7 137 20 30 10 57 17 61 14 4 -2 13 4 20 14 13 16 12 16 -6 3 -11 -8 -1 5
21 30 64 68 79 103 79 189 0 57 -6 85 -22 115 -29 56 -103 121 -153 136 -34
10 -39 14 -24 20 11 4 12 7 4 6 -8 -1 -95 -3 -192 -4z m173 -178 c67 -35 66
-156 -2 -191 -17 -8 -58 -14 -104 -14 l-75 0 0 110 0 110 75 0 c49 0 87 -6
106 -15z"/>
<path d="M8130 2969 c-25 -11 -55 -30 -67 -41 -13 -12 -23 -18 -23 -14 0 13
-30 -15 -41 -38 -7 -13 -1 -9 15 9 l26 30 -25 -45 c-34 -62 -36 -171 -2 -221
38 -56 101 -96 203 -129 53 -17 109 -37 126 -46 56 -29 57 -103 1 -125 -16 -6
-56 -9 -90 -7 -69 4 -105 24 -138 76 -11 17 -24 31 -28 32 -15 0 -136 -75
-142 -88 -3 -7 0 -23 6 -34 16 -30 89 -107 113 -120 12 -6 0 8 -26 31 -44 39
-88 98 -88 117 0 4 13 -12 29 -37 63 -100 152 -144 291 -144 66 1 96 6 134 23
26 12 51 20 55 17 16 -9 111 108 98 121 -2 3 -10 -8 -16 -24 -7 -16 -29 -45
-49 -63 l-37 -34 31 35 c54 60 66 94 62 176 -6 118 -52 162 -239 229 -159 57
-192 93 -134 150 48 49 161 24 198 -45 l19 -35 -21 25 c-11 14 -21 28 -21 31
0 14 -70 39 -107 38 -33 -1 -31 -2 17 -9 49 -7 60 -14 98 -57 24 -26 40 -42
36 -34 -5 10 -3 13 8 8 9 -3 24 1 35 9 17 14 16 14 -4 4 -48 -23 -20 1 37 32
33 18 60 40 60 48 0 13 1 13 11 0 9 -13 10 -13 6 0 -2 8 -8 15 -14 15 -6 0
-27 23 -47 50 l-37 50 42 -45 c25 -28 34 -33 21 -15 -21 31 -81 90 -67 66 5
-9 3 -12 -6 -9 -8 3 -14 10 -14 16 0 5 -4 14 -9 19 -5 5 -6 3 -2 -4 10 -17 6
-16 -45 7 -61 27 -177 27 -239 -1z"/>
<path d="M6825 2909 c-15 -7 -12 -8 15 -4 23 3 12 -3 -30 -18 l-65 -22 -3 -52
-3 -53 -45 0 -44 0 0 -80 0 -80 45 0 45 0 0 -109 c0 -59 5 -133 11 -162 6 -30
12 -63 13 -73 3 -21 59 -76 79 -76 6 0 -1 8 -18 18 -16 11 -37 27 -45 38 -12
16 -10 15 10 -2 14 -12 34 -26 46 -32 30 -16 117 -25 158 -18 l36 7 0 68 0 69
-56 4 c-33 3 -60 11 -65 19 -5 8 -9 68 -9 134 l0 120 65 -3 65 -4 0 82 0 82
-65 -4 -65 -3 0 76 c0 71 -2 77 -22 83 -28 7 -28 7 -53 -5z"/>
<path d="M5828 2782 c-10 -4 26 -7 80 -7 87 0 102 -3 142 -27 25 -14 56 -39
70 -54 23 -26 22 -25 -13 4 -60 51 -96 65 -177 70 -55 3 -87 -1 -120 -13 -25
-9 -53 -17 -63 -18 -9 -1 -29 -12 -45 -25 l-27 -24 35 23 35 22 -42 -44 c-63
-66 -88 -128 -87 -219 0 -124 55 -215 162 -267 49 -24 69 -28 142 -28 84 1 87
1 194 53 5 3 5 -2 1 -9 -4 -8 8 2 28 20 37 35 47 48 26 35 -7 -4 -9 0 -5 12 5
16 -6 26 -55 53 l-60 33 -25 -23 c-30 -28 -127 -38 -174 -19 -30 12 -70 54
-70 71 0 5 95 9 211 9 l212 0 -5 78 c-3 61 -11 90 -31 127 -31 54 -32 59 -14
49 6 -4 -4 10 -23 30 -62 67 -112 89 -204 93 -45 1 -89 -1 -98 -5z m148 -168
c29 -14 64 -57 64 -79 0 -3 -58 -5 -130 -5 -71 0 -130 2 -130 5 0 4 7 19 14
34 29 55 115 76 182 45z"/>
<path d="M9555 2771 c21 -10 20 -11 -40 -18 -16 -2 -36 -4 -42 -5 -7 -1 -13
-7 -13 -15 0 -10 6 -10 28 4 27 17 27 17 -3 -12 l-30 -30 -3 33 -3 32 -80 0
-79 0 0 -285 0 -285 80 0 80 0 0 150 c0 170 10 209 59 234 16 9 48 16 71 16
l40 0 0 90 c0 79 -2 90 -17 90 -10 0 -29 3 -43 5 -22 5 -22 4 -5 -4z"/>
<path d="M4166 2755 c-21 -7 -51 -26 -67 -41 l-29 -28 0 37 0 37 -75 0 -75 0
0 -285 0 -285 75 0 75 0 0 145 c0 163 12 210 59 238 16 9 48 18 70 19 l41 1 0
89 c0 99 -1 99 -74 73z"/>
<path d="M4413 2753 c-16 -13 -16 -13 4 -4 37 18 40 12 5 -9 -38 -23 -46 -25
-36 -7 4 6 -14 -8 -40 -33 -26 -25 -52 -54 -58 -65 -6 -11 11 3 38 31 27 27
35 34 18 15 -18 -20 -37 -46 -43 -59 -7 -12 -15 -21 -19 -18 -4 2 -8 -6 -9
-17 -1 -12 -5 -53 -8 -92 -6 -58 -3 -80 14 -127 12 -31 28 -62 36 -68 17 -14
21 -35 5 -25 -19 12 -10 -1 22 -31 17 -16 28 -23 24 -16 -11 18 9 15 25 -5 12
-14 12 -16 0 -8 -10 5 -12 4 -7 -4 4 -6 11 -9 14 -7 4 2 32 -4 62 -14 30 -11
73 -19 96 -20 106 -1 216 65 269 161 27 48 30 63 30 139 -1 81 -3 91 -43 174
-3 5 1 5 8 1 7 -4 2 6 -11 24 -28 38 -38 41 -14 4 14 -22 9 -20 -24 12 -44 42
-56 61 -18 29 l22 -19 -19 22 c-10 13 -22 20 -27 17 -5 -3 -21 2 -36 10 -32
17 -23 22 10 5 19 -10 20 -9 9 2 -19 20 -275 22 -299 2z m207 -149 c52 -21 80
-66 80 -130 0 -88 -55 -144 -142 -144 -89 0 -144 63 -136 157 5 59 31 96 83
119 40 18 67 17 115 -2z"/>
<path d="M5180 2755 c-19 -9 -42 -23 -52 -32 -17 -15 -18 -14 -18 10 0 27 0
27 -80 27 l-80 0 0 -395 0 -395 80 0 80 0 0 129 0 130 48 -27 c63 -36 165 -38
230 -4 23 13 46 21 51 18 10 -6 74 58 65 66 -9 9 15 48 28 45 6 -1 13 5 15 13
4 13 3 13 -7 0 -10 -12 -11 -10 -6 10 21 84 24 123 16 173 -12 76 -40 126
-102 183 -32 29 -41 41 -23 30 26 -16 28 -16 14 -1 -18 18 -42 23 -154 30 -50
4 -80 1 -105 -10z m147 -155 c48 -29 67 -65 67 -124 0 -71 -27 -115 -86 -140
-63 -26 -110 -16 -160 34 -35 35 -38 42 -38 94 0 68 19 110 63 136 42 26 112
26 154 0z"/>
<path d="M6536 2755 c-21 -7 -51 -26 -67 -41 l-29 -28 0 37 0 37 -75 0 -75 0
0 -285 0 -285 74 0 74 0 3 158 c3 130 7 163 22 185 25 39 59 58 106 60 l41 1
0 88 c0 99 -1 99 -74 73z"/>
<path d="M8820 2756 c-19 -7 -44 -17 -54 -21 -15 -7 -17 -5 -11 6 5 8 5 11 -1
6 -5 -5 -9 -14 -9 -19 0 -6 -6 -13 -14 -16 -9 -3 -11 0 -6 9 5 8 -4 3 -20 -11
-30 -27 -85 -107 -85 -124 0 -6 13 12 29 39 16 28 39 59 52 70 15 13 12 6 -9
-21 -157 -198 -47 -471 200 -500 49 -6 116 3 173 21 17 6 18 5 5 -5 -13 -10
-13 -11 0 -7 8 2 15 9 15 14 0 12 48 53 62 53 4 0 -5 -12 -22 -26 l-30 -26 32
22 c29 19 92 93 66 77 -6 -4 -13 -4 -15 1 -1 4 -29 22 -60 40 l-57 32 -38 -26
c-33 -23 -46 -25 -105 -22 -58 3 -72 8 -98 33 -56 53 -50 55 175 55 l204 0 7
34 c3 19 0 59 -6 88 -7 29 -14 65 -15 81 -4 33 -43 87 -87 118 -17 13 -28 18
-24 11 10 -16 5 -15 -45 8 -52 23 -155 26 -209 6z m175 -150 c13 -9 32 -30 40
-46 l16 -30 -137 0 -136 0 19 33 c37 64 134 85 198 43z"/>
<path d="M10731 2760 c-13 -6 -32 -8 -42 -5 -12 4 -35 -11 -76 -50 -32 -31
-52 -53 -44 -49 7 4 12 3 9 -2 -57 -119 -66 -163 -49 -246 8 -35 27 -78 52
-115 l40 -58 -37 40 c-26 29 -31 32 -16 10 20 -30 72 -81 58 -57 -11 18 9 15
25 -5 12 -15 12 -16 -1 -8 -8 4 -12 4 -7 0 4 -5 15 -10 25 -11 9 -2 42 -10 72
-19 107 -32 234 5 305 87 19 23 35 45 35 49 0 5 -30 25 -66 45 l-65 36 -16
-22 c-19 -27 -71 -50 -115 -50 -38 0 -100 30 -106 51 -3 8 6 4 20 -8 13 -13
28 -23 32 -23 5 0 -4 10 -20 23 -16 12 -33 22 -39 22 -15 0 -29 67 -21 108 21
113 166 154 239 68 l24 -29 49 29 c27 16 55 27 62 24 7 -3 10 0 7 5 -3 6 -1
10 4 10 21 0 10 22 -36 72 -32 34 -39 45 -22 34 15 -9 39 -35 54 -56 30 -43
43 -53 25 -19 -18 33 -90 100 -100 94 -5 -3 -22 1 -37 9 -32 17 -23 22 10 5
18 -9 20 -9 10 1 -15 17 -208 24 -242 10z"/>
<path d="M11252 2753 c-15 -13 -15 -13 5 -4 37 18 40 12 5 -9 -36 -22 -46 -25
-37 -10 10 16 -1 11 -16 -7 -12 -15 -12 -16 1 -8 8 4 -2 -10 -22 -31 -74 -78
-102 -187 -73 -289 9 -33 18 -68 19 -77 1 -10 6 -21 11 -25 4 -5 4 -1 0 7 -8
13 -7 13 8 1 18 -14 24 -36 7 -26 -19 12 -10 -1 22 -31 17 -16 28 -23 24 -16
-11 18 9 15 25 -5 12 -15 12 -16 -1 -8 -8 4 -12 4 -7 0 4 -5 15 -10 25 -11 9
-2 42 -10 72 -19 90 -27 163 -15 284 43 5 3 5 -2 1 -9 -4 -8 11 4 34 26 22 21
41 43 41 47 0 4 -15 -7 -32 -25 -18 -18 -23 -21 -10 -7 12 14 22 30 22 36 0 5
-27 24 -61 43 l-60 33 -25 -23 c-30 -28 -127 -38 -174 -19 -30 12 -70 54 -70
71 0 5 95 9 211 9 l212 0 -5 78 c-3 53 -12 91 -27 120 -12 23 -20 46 -17 51 3
4 -13 25 -36 47 -22 21 -38 33 -34 27 10 -18 3 -16 -41 10 -33 19 -53 22 -151
23 -83 1 -117 -3 -130 -13z m213 -137 c28 -12 65 -58 65 -81 0 -3 -58 -5 -130
-5 -71 0 -130 2 -130 5 0 4 6 18 14 33 28 54 112 76 181 48z"/>
<path d="M11845 2746 c-58 -30 -59 -30 -49 -13 4 6 -2 3 -14 -7 -23 -20 -30
-32 -12 -21 14 9 13 5 -10 -40 -32 -63 -24 -132 23 -185 17 -19 18 -21 3 -10
-11 8 -27 29 -38 45 -10 17 -18 24 -18 17 0 -7 18 -32 41 -55 22 -23 38 -36
34 -28 -5 9 -3 12 6 9 8 -3 13 -10 12 -16 -2 -6 3 -9 10 -7 19 8 179 -49 191
-67 29 -46 -85 -69 -138 -27 -14 11 -26 27 -26 35 0 19 -2 18 -66 -17 -30 -17
-58 -29 -61 -25 -8 8 -33 -13 -33 -27 0 -6 7 -2 15 9 14 18 14 17 5 -10 -10
-27 -7 -32 40 -78 27 -26 55 -48 61 -48 6 0 -8 15 -32 33 -23 17 -49 43 -57
57 -8 14 -1 9 16 -12 51 -58 112 -83 207 -83 67 0 89 4 130 26 156 80 131 272
-41 323 -103 30 -127 41 -138 59 -9 15 -7 21 8 33 35 25 75 17 112 -21 29 -31
37 -34 54 -25 11 6 20 13 20 16 0 2 -9 0 -19 -6 -11 -5 -23 -10 -28 -10 -4 0
25 19 65 41 39 22 72 44 72 48 0 4 -21 27 -46 51 -26 25 -43 39 -39 31 5 -9 3
-12 -6 -9 -8 3 -13 10 -12 16 2 7 -4 9 -14 5 -9 -4 -14 -2 -11 3 4 5 -31 10
-80 12 -77 3 -93 0 -137 -22z"/>
<path d="M7053 2754 c-9 -4 -13 -28 -11 -77 l1 -72 6 67 c3 36 8 69 11 71 3 3
56 -116 118 -263 113 -266 113 -268 98 -299 -19 -36 -48 -56 -94 -66 l-33 -7
3 -71 3 -72 45 3 c38 3 70 14 144 50 5 3 6 0 2 -7 -13 -20 0 -12 30 21 16 17
23 28 17 24 -15 -9 -18 10 -3 19 6 4 20 25 32 48 25 49 228 604 228 624 0 10
-20 13 -79 13 l-80 0 -57 -175 c-32 -96 -62 -171 -66 -167 -4 4 -36 81 -71
172 l-63 165 -85 2 c-46 1 -90 -1 -96 -3z"/>
<path d="M9633 2678 c-1 -63 1 -75 7 -49 5 19 6 40 3 48 -3 7 -3 13 0 13 2 0
47 -113 98 -250 l94 -250 89 2 89 3 103 270 c57 149 103 276 104 283 0 9 -23
12 -83 12 l-82 0 -60 -170 c-55 -160 -60 -169 -73 -148 -9 15 -11 17 -8 5 28
-90 6 -42 -39 83 -30 85 -61 171 -68 190 l-13 35 -80 3 -81 3 0 -83z"/>
<path d="M10280 2475 l0 -285 75 0 75 0 0 285 0 285 -75 0 -75 0 0 -285z"/>
</g>
</svg>
